<?xml version="1.0" encoding="utf-8"?>
<!-- Generator: Adobe Illustrator 26.3.1, SVG Export Plug-In . SVG Version: 6.00 Build 0)  -->
<svg version="1.1" id="hscCoa0nb5o77ve621ef-i_Layer_1" xmlns="http://www.w3.org/2000/svg" xmlns:xlink="http://www.w3.org/1999/xlink" x="0px" y="0px" viewBox="0 0 90 90" style="enable-background:new 0 0 90 90;fill:#ff4691;" xml:space="preserve" class="hscCoa0nb5o77ve621ef-i">
<path d="M80.3,51.35c0-0.01,0-0.02,0-0.02c-0.02-7.78-3.06-15.08-8.56-20.58c0,0,0,0,0,0c0,0,0,0,0,0
	c-2.08-2.07-4.43-3.79-6.98-5.13c-1.35-2.57-3.07-4.92-5.14-6.98c0,0,0,0,0,0s0,0,0,0l0,0l0,0c-2.7-2.7-5.83-4.81-9.3-6.27
	c-3.61-1.53-7.43-2.3-11.38-2.3c-3.95,0-7.78,0.77-11.38,2.3c-3.46,1.46-6.59,3.57-9.3,6.27c-2.7,2.69-4.8,5.81-6.27,9.29
	c-1.53,3.6-2.3,7.43-2.3,11.38c0,3.95,0.77,7.78,2.3,11.38c1.46,3.47,3.57,6.6,6.26,9.3c2.08,2.08,4.43,3.8,6.98,5.14
	c1.36,2.57,3.07,4.92,5.14,6.98c5.52,5.52,12.86,8.56,20.68,8.56c0,0,0,0,0,0c0,0,0,0,0.01,0c0,0,0,0,0,0
	c7.81,0,15.15-3.04,20.67-8.56c5.53-5.52,8.57-12.87,8.57-20.68C80.3,51.4,80.3,51.38,80.3,51.35z M71.52,50.09h-2.05
	c-0.15-2.21-0.71-4.33-1.63-6.33c0.22-1.45,0.34-2.95,0.34-4.46v-0.01c0-0.99-0.06-1.98-0.16-2.96l2.75-2.75
	c4.14,4.57,6.53,10.34,6.83,16.5L71.52,50.09z M52.39,69.84c3.99-0.28,7.74-1.84,10.76-4.46l5.74,5.77
	c-4.57,4.14-10.34,6.53-16.5,6.83V69.84z M62.24,62.58c-2.98,2.99-6.95,4.64-11.18,4.64c0,0,0,0,0,0c0,0,0,0,0,0c0,0,0,0,0,0
	c-0.92,0-1.82-0.08-2.71-0.23c4.21-1.42,8.05-3.8,11.26-7.01c0,0,0,0,0,0c3.21-3.21,5.59-7.05,7.02-11.26
	c0.15,0.88,0.23,1.79,0.23,2.7c0,0.01,0,0.02,0,0.02C66.85,55.65,65.22,59.61,62.24,62.58z M27.77,50.48
	C27.77,50.48,27.77,50.48,27.77,50.48C27.77,50.48,27.76,50.48,27.77,50.48c-1.26-1.26-2.28-2.69-3.05-4.27
	c-1.05-2.16-1.58-4.49-1.58-6.91c0-4.22,1.64-8.18,4.62-11.16c0,0,0,0,0,0c0,0,0,0,0,0c2.98-2.99,6.95-4.64,11.18-4.64
	c2.13,0,4.2,0.42,6.15,1.24c0.26,0.11,0.51,0.22,0.77,0.35c1.57,0.77,3,1.79,4.25,3.03c0,0,0,0,0,0c0,0,0,0,0,0.01
	c1.96,1.96,3.38,4.42,4.09,7.09c0.36,1.31,0.54,2.68,0.54,4.07c0,2.13-0.42,4.19-1.24,6.14c-0.8,1.88-1.94,3.57-3.38,5.02
	c-2.98,2.99-6.95,4.64-11.18,4.65c-1.4,0-2.77-0.18-4.09-0.54C32.19,53.86,29.75,52.45,27.77,50.48z M58.65,57.14l-5.74-5.77
	c1.27-1.46,2.29-3.1,3.05-4.89c0.79-1.87,1.26-3.83,1.4-5.84h5.71h0.03c0.03,0,0.05,0.01,0.08,0.01c0.03,0,0.06-0.01,0.09-0.01h0.01
	h2.23c-0.05,1.05-0.16,2.08-0.33,3.09c0,0.02-0.01,0.04-0.01,0.06C64.3,48.78,62.06,53.38,58.65,57.14z M67.52,33.08
	c-0.23-1.08-0.53-2.15-0.89-3.19c0.78,0.56,1.54,1.16,2.26,1.81L67.52,33.08z M65.32,36c0.08,0.65,0.14,1.31,0.17,1.97h-2.32h-0.02
	h-5.81c-0.08-1.17-0.28-2.32-0.58-3.43c-0.72-2.7-2.05-5.21-3.87-7.32l5.76-5.75c1.57,1.73,2.89,3.65,3.94,5.73
	C64.02,29.94,64.94,32.9,65.32,36z M40.27,63.63c0-0.03,0-0.06,0-0.09c0-0.04,0-0.08,0-0.12v-5.71c4-0.29,7.74-1.84,10.76-4.47
	l5.74,5.77c-3.77,3.41-8.36,5.65-13.36,6.49c-0.02,0-0.04,0-0.06,0.01c-1.02,0.17-2.05,0.29-3.08,0.34V63.63z M56.78,19.59
	l-4.98,4.97l-0.77,0.77c-1.21-1.05-2.55-1.93-3.98-2.63c-0.3-0.15-0.61-0.29-0.92-0.42c-1.87-0.79-3.83-1.26-5.85-1.4v-8.14
	c3.12,0.15,6.15,0.84,9.02,2.06C52.03,15.96,54.54,17.57,56.78,19.59z M28.59,14.81c2.87-1.21,5.9-1.9,9.02-2.06v8.14
	c-3.99,0.28-7.73,1.83-10.75,4.46l-2.78-2.78l-2.97-2.97C23.33,17.57,25.85,15.96,28.59,14.81z M14.45,28.95
	c1.16-2.76,2.76-5.27,4.78-7.48l5.76,5.76c-2.62,3.02-4.17,6.76-4.45,10.74h-8.14C12.54,34.85,13.23,31.82,14.45,28.95z
	 M12.39,40.63h8.14c0.16,2.35,0.77,4.62,1.8,6.75c0.7,1.45,1.59,2.79,2.65,4.01l-5.75,5.75c-2.02-2.22-3.62-4.74-4.78-7.49
	C13.23,46.78,12.54,43.75,12.39,40.63z M26.86,53.26c2.12,1.83,4.62,3.16,7.3,3.88c1.12,0.3,2.27,0.5,3.45,0.58v5.81v0.01v0.01v2.32
	c-0.64-0.03-1.26-0.08-1.88-0.16c-7.5-2-8.18-2.35-8.91-2.73c-2.06-1.05-3.98-2.38-5.72-3.95L26.86,53.26z M29.28,66.67
	c0.92,0.27,2.09,0.6,3.63,1.02l-1.57,1.57C30.6,68.44,29.91,67.57,29.28,66.67z M35.97,68.39c0.97,0.1,1.97,0.16,2.97,0.16
	c1.48,0,2.98-0.12,4.46-0.35c2,0.92,4.12,1.48,6.34,1.64v8.14c-6.17-0.3-11.94-2.69-16.52-6.84L35.97,68.39z M70.77,69.26
	l-5.74-5.77c2.62-3.02,4.16-6.75,4.44-10.74l4.14,0l4,0C77.31,58.91,74.92,64.69,70.77,69.26z M44.74,50.33
	c0.19,0.1,0.41,0.15,0.62,0.15c0.28,0,0.55-0.09,0.78-0.25c0.41-0.3,0.61-0.8,0.53-1.3l-1.1-6.44l4.68-4.56
	c0.36-0.35,0.49-0.88,0.34-1.36c-0.16-0.48-0.57-0.83-1.07-0.91l-6.47-0.94l-2.89-5.86c-0.22-0.45-0.69-0.74-1.19-0.74
	c-0.51,0-0.97,0.29-1.19,0.74l-2.89,5.86l-6.47,0.94c-0.5,0.07-0.92,0.42-1.07,0.91c-0.15,0.48-0.02,1.01,0.34,1.36l4.68,4.56
	l-1.11,6.44c-0.09,0.5,0.12,1,0.53,1.3c0.41,0.3,0.95,0.34,1.4,0.1l5.79-3.04L44.74,50.33z M34.31,46.72l0.77-4.48
	c0.07-0.43-0.07-0.87-0.38-1.18l-3.25-3.17l4.5-0.65c0.43-0.06,0.81-0.34,1-0.73l2.01-4.07l2.01,4.07c0.19,0.39,0.57,0.67,1,0.73
	l4.5,0.65l-3.25,3.17c-0.31,0.3-0.46,0.75-0.38,1.18l0.77,4.48l-4.02-2.11c-0.39-0.2-0.85-0.2-1.24,0L34.31,46.72z"/>
</svg>
