<?xml version="1.0" encoding="utf-8"?>
<!-- Generator: Adobe Illustrator 26.3.1, SVG Export Plug-In . SVG Version: 6.00 Build 0)  -->
<svg width="100%" height="100%" xmlns="http://www.w3.org/2000/svg" viewBox="0 0 90 90" xmlns:xlink="http://www.w3.org/1999/xlink" style="fill: #ffffff;"><path fill="" d="M80.6,31.2c1.6,2.5,2.9,5,3.4,7.8c0.1,0.5,0.2,1.1,0.2,1.6c-0.1,0.5-0.3,1.1-0.6,1.3c-0.3,0.2-1,0.1-1.3-0.1 c-2.2-1.2-4.4-2.5-6.6-3.8c-0.3-0.1-0.5-0.2-1.1-0.4c1.5,2.1,2.3,4.1,2.7,6.3c0.2,0.9,0.3,1.8,0.3,2.8c0,1.2-0.8,1.7-1.9,1.2 c-1.4-0.7-2.8-1.3-4.3-1.9c-0.7-0.3-1.5-0.4-2.3-0.4c-2-0.1-3.5,0.8-4.5,2.5c-1.4,2.5-2.7,5.1-4.2,7.6c-2.6,4.3-5.9,8-9.9,11.2 c-1.8,1.5-3.4,3.2-5.2,4.7c-0.9,0.7-1.9,1.3-3,2.1c0,1.6,0,3.4,0,5.2c0,0.3,0.2,0.6,0.4,0.8c0.7,0.7,1.5,1.4,2.2,2.1 c0.5,0.5,0.7,1.1,0.1,1.7c-0.5,0.6-1.1,0.5-1.8,0c-0.6-0.5-1.1-1.1-1.7-1.6c-0.2,0.1-0.4,0.2-0.5,0.4c-1,1.2-2.3,1.7-3.8,1.7 c-0.9,0-1.7,0-2.6,0c-1,0-1.5-0.4-1.5-1.2c0-0.8,0.5-1.1,1.5-1.2c1.1,0,2.2,0,3.3,0c1.4,0,2-0.7,2-2c0-1.8,0-3.6,0-5.4 c0-0.2-0.2-0.7-0.4-0.7c-1.6-0.3-2.7-1.4-3.9-2.4c-0.3-0.2-0.5-0.4-0.6-0.5c-1.2,0.9-2.4,1.7-3.5,2.6c-0.2,0.2-0.3,0.6-0.3,0.9 c0,1.8-0.1,3.6,0,5.4c0.1,2.9-2.1,4.4-4.3,4.5c-1.2,0.1-2.4,0-3.6,0c-0.9,0-1.3-0.5-1.3-1.2c0.1-0.8,0.6-1.1,1.3-1.1 c1.2,0,2.3,0,3.5,0c1.4,0,2-0.6,2-2c0-1.8,0-3.6,0-5.5c0-0.3-0.3-0.7-0.5-0.8c-1.9-0.7-3.1-1.9-4-3.7c-0.5-1.1-0.9-2.4-1.4-3.5 c-0.2-0.5-0.6-1-1-1.2c-3.7-2-7.3-4.2-10.5-7C4.4,51.5,2.4,43,5.8,34.1C5.9,33.8,6,33.6,6,33.3c-2.9-0.9-4.5-4-2.4-8.2 C3,25.3,2.5,25.5,2,25.7c-1.4,0.5-2.1-0.1-1.9-1.6c0.2-1.8,1.1-3.2,2.3-4.4c0.2-0.2,0.4-0.4,0.7-0.6c-2.2-2.1-2.5-4.5-1.5-7.1 C2.5,9.2,4.3,8.3,7,9c1.1-3.6,4.2-3.7,6.1-1.2c1.1-0.7,2.3-1.5,3.7-1.1C17.6,7,18.4,7.4,19,8c1.6,1.6,1.5,3.7-0.1,6.2 c2.4,1.5,3.8,4,5.3,6.3c2.5,4,5,8,7.6,11.9c1.5,2.3,3.3,4.4,5.6,5.9c1.1,0.7,2.3,1.2,3.6,1.6c1.2,0.4,1.3,0.1,1.6-1.1 c1.4-5.3,3.5-10.2,7-14.5c4.7-5.8,10.7-8.4,18.1-8c7.5,0.3,13.8,3.3,18.3,9.5c2.1,2.8,3.3,6,4,9.4c0.1,0.4-0.2,1.1-0.5,1.2 c-0.4,0.2-1.1,0.1-1.5-0.1c-2.2-1.5-4.4-3.1-6.6-4.6C81.2,31.5,80.9,31.4,80.6,31.2z M6.9,39.2c-0.1,0.2-0.1,0.3-0.2,0.4 C6.1,45,7.3,49.9,10.9,53.9c4.5,5,10.1,8.3,16.2,10.7c4.1,1.6,8.2,2.8,11.6,5.9c1.6,1.4,3.4,1,5-0.5c1.5-1.5,3.1-2.9,4.7-4.3 c2.1-1.9,4.3-3.7,6.2-5.8c3.2-3.5,5.4-7.7,7.6-11.9c2.2-4.3,5.7-5.6,10.1-3.8c0.8,0.3,1.6,0.7,2.7,1.2c-0.4-1.5-0.5-2.9-1.1-4 c-1.7-3.8-4-5.2-7.1-4.9c-1.6,0.1-3.1,0.7-4.4,1.7c-1.4,1.1-2.8,2.2-4.1,3.4c-0.6,0.5-1.2,0.6-1.7,0c-0.6-0.6-0.5-1.2,0.1-1.7 c0.7-0.7,1.4-1.5,2.2-2.1c3.4-3.2,7.4-4.4,12-3.5c3.5,0.6,6.6,2.1,9.6,3.9c0.3,0.2,0.6,0.3,1,0.6c-0.8-2.8-2.2-5.1-4-7.1 c-1.6-1.7-3.4-3.1-5.8-3.6c-2.4-0.4-4.8-0.6-7.2-0.3c-4,0.6-7.6,2-10,5.4c-0.4,0.6-1,0.7-1.5,0.3c-0.6-0.4-0.8-1-0.4-1.6 c0.4-0.6,0.9-1.3,1.4-1.8c3.1-3,7-4.4,11.2-4.7c5.3-0.4,10.4,0.8,15.1,3.2c2.2,1.1,4.3,2.5,6.5,3.7c-0.1-0.2-0.1-0.4-0.2-0.6 c-1-2.4-2.3-4.6-4.1-6.5c-3.7-3.9-8.4-5.8-13.6-6.2c-7.1-0.5-13,1.7-17.5,7.4c-3.2,4.1-5.2,8.9-6.4,13.9c-0.4,1.8-0.2,2-2.6,2.2 c-0.3,0-0.7,0-1,0c-2.3-0.2-4.2-1.3-6-2.7c-3.2-2.6-5.5-6-7.8-9.4c-0.2-0.3-0.4-0.6-0.6-0.9c-0.1,0.1-0.2,0.1-0.2,0.1 c-0.3,1.3-0.7,2.6-1,3.9c-0.3,1.2-0.8,1.5-2,1.1c-1.2-0.4-2.4-0.9-3.7-1.3c-0.5,1.2-1,2.4-1.5,3.6c-0.5,1.2-1,1.4-2.2,0.9 c-1-0.4-1.9-0.8-2.9-1.2c-0.6,1.4-1.2,2.8-1.8,4.1c-0.6,1.5-1.3,1.6-2.5,0.6C8.4,40.5,7.7,39.9,6.9,39.2z M23.5,31.9 c0.5-1.8,0.9-3.5,1.3-5.2c0.1-0.2,0-0.6-0.2-0.8c-1.5-2.4-3-4.9-4.6-7.3c-1.9-2.9-4.8-4-8.2-3.6c-1.7,0.2-3.2,0.9-4.1,2.4 c-0.3,0.5-0.4,0.9,0.1,1.5c0.9,1.1,1.1,2.4,0.8,3.8c-0.1,0.3,0,0.8,0.2,1.1c1.6,2.6,1.9,5.3,0.4,8.1c-0.7,1.3-1.2,2.7-1.7,4.1 c-0.1,0.2,0,0.6,0.1,0.7c0.7,0.6,1.4,1.2,2.2,1.9c0.6-1.4,1.1-2.6,1.7-3.9c0.5-1.1,1-1.3,2-0.8c1,0.4,1.9,0.8,3,1.2 c0.5-1.3,1-2.5,1.5-3.7c0.4-1,0.9-1.2,2-0.9C21.2,31,22.3,31.4,23.5,31.9z M5.2,17.4c0.8-2,2.2-3.4,4.2-4.2c2.1-0.9,4.2-0.9,6.3-0.4 c0.4,0.1,0.8,0.1,1.1,0c0.7-0.3,1-0.9,1-1.7c0-0.9-0.4-1.5-1.2-2c-0.7-0.4-1.3,0-1.8,0.4c-1.4,1.2-2.2,1.1-3.4-0.3 c-0.8-0.9-1.8-0.7-2.2,0.4C9.1,9.8,9.1,10,9,10.2c-0.4,1.6-1.1,1.9-2.5,1.2c-1.3-0.7-1.8-0.5-2.5,0.8c-0.3,0.5-0.4,1-0.5,1.6 C3.2,15.5,3.8,16.9,5.2,17.4z M32.7,69.2c-2.4-0.8-4.6-1.7-6.8-2.5c0.2,0.9,0.5,1.7,0.9,2.4C28.4,71.7,30.7,71.8,32.7,69.2z M6.7,25.4c-1.5,1.1-2.2,3.2-1.4,4.6c0.2,0.4,0.8,0.8,1.3,0.8c0.6,0.1,1.1-0.4,1.2-1C8.3,28.1,7.9,26.6,6.7,25.4z M3,23 c1-0.2,1.8-0.4,2.6-0.6c0.3-0.1,0.7-0.3,0.7-0.4c-0.1-0.5-0.2-1-0.5-1.5c0-0.1-0.6-0.1-0.8,0C4.1,21.1,3.3,21.8,3,23z M41.9,59.4 c-2.8,1.2-5.6,1-8.4-0.2c-3.8-1.6-6.8-4-8-8.2c-1.1-3.7,0.5-7.6,4.4-8.7c0.1,0,0.4-0.1,0.4-0.2c0.2-0.4,0.6-0.9,0.5-1.3 c-0.1-0.3-0.7-0.7-1.1-0.8c-0.3-0.1-0.6,0.1-1,0.2c-4.6,1.6-7,6.5-5.5,11.5c1.4,4.7,4.8,7.5,9,9.5c2.7,1.2,5.6,1.7,8.6,1 c3.2-0.8,5.7-2.3,6.6-5.8c0.1-0.2,0.5-0.4,0.7-0.5c2.5-0.9,4.7-2.2,6.1-4.6c1.4-2.4,0.6-4.2-2.1-4.8c-2.5-0.5-4.9-1.1-7.4-1.6 c-1-0.2-1.6,0.1-1.7,0.9c-0.1,0.7,0.3,1.2,1.2,1.4c2.5,0.5,4.9,1.1,7.4,1.6c1,0.2,1,0.4,0.5,1.3c-1.5,2.5-6.3,5.2-10,3.2 c-0.3-0.2-1-0.1-1.3,0.1c-0.7,0.5-0.6,1.6,0.2,1.9c1.2,0.5,2.5,0.9,3.8,1.3C44.4,57.8,43.4,58.8,41.9,59.4z"></path></svg>