<?xml version="1.0" encoding="utf-8"?>
<!-- Generator: Adobe Illustrator 26.3.1, SVG Export Plug-In . SVG Version: 6.00 Build 0)  -->
<svg version="1.1" id="ha0t62s9rbd8epfov-o14e_Layer_1" xmlns="http://www.w3.org/2000/svg" xmlns:xlink="http://www.w3.org/1999/xlink" x="0px" y="0px" viewBox="0 0 90 90" style="enable-background:new 0 0 90 90;fill:#ff4691;" xml:space="preserve" class="ha0t62s9rbd8epfov-o14e">
<path d="M73.64,59.92l-4.81-1.48v-1.1c3.25-2.08,5.33-5.58,5.59-9.43c1.83-0.73,3.05-2.5,3.05-4.48c0-1.06-0.35-2.09-0.99-2.93
	v-3.94C76.47,30.74,71.73,26,65.9,25.99h-2.94l-0.58-7.8c-0.32-4.29-3.95-7.66-8.25-7.68h-1.86c-1.45,0-2.79,0.73-3.58,1.94
	c-0.29,0.44-0.77,0.7-1.3,0.7h-4.77c-0.53,0-1.01-0.26-1.3-0.7c-0.79-1.21-2.13-1.94-3.58-1.94h-1.86c-4.3,0.01-7.92,3.38-8.25,7.67
	l-0.58,7.8H24.1C18.27,26,13.53,30.74,13.52,36.57v3.94c-0.64,0.83-0.99,1.87-0.99,2.92c0,1.99,1.22,3.76,3.05,4.48
	c0.26,3.85,2.34,7.35,5.59,9.43v1.1l-4.81,1.48c-3.51,1.07-5.86,4.25-5.84,7.92v5.37c0,0.75,0.61,1.37,1.37,1.37h15.91v3.54
	c0,0.75,0.61,1.37,1.37,1.37h31.68c0.75,0,1.37-0.61,1.37-1.37v-3.54h15.91c0.75,0,1.37-0.61,1.37-1.37v-5.37
	C79.5,64.18,77.15,60.99,73.64,59.92z M71.28,68.39c-0.75,0-1.37,0.61-1.37,1.37v2.09h-7.76c-0.35-3.26-2.64-6.05-5.79-7.01
	l-4.81-1.48v-0.76c0.06-0.02,0.11-0.04,0.17-0.06l4.39-1.35c0.92,2.59,3.4,4.37,6.17,4.37c0.62,0,1.23-0.09,1.83-0.26
	c2.05-0.6,3.65-2.12,4.35-4.11l4.39,1.35c2.31,0.7,3.92,2.89,3.91,5.31l0,4h-4.11v-2.09C72.65,69,72.03,68.39,71.28,68.39z M54,73.3
	c-0.75,0-1.37,0.61-1.37,1.37v2.09H37.37v-2.09c0-0.75-0.61-1.37-1.37-1.37c-0.76,0-1.37,0.61-1.37,1.37v2.09h-4.11v-4.01
	c-0.01-2.46,1.56-4.59,3.91-5.3l4.39-1.35c0.91,2.59,3.4,4.38,6.17,4.38c0.62,0,1.23-0.09,1.83-0.26c2.05-0.6,3.65-2.12,4.35-4.11
	l4.39,1.35c2.31,0.7,3.92,2.88,3.91,5.3l0,4.01h-4.1v-2.09C55.37,73.91,54.75,73.3,54,73.3z M18.72,68.39
	c-0.75,0-1.37,0.61-1.37,1.37v2.09h-4.11v-4c-0.01-2.42,1.6-4.6,3.91-5.3l4.39-1.35c0.91,2.59,3.4,4.37,6.17,4.37
	c0.62,0,1.23-0.09,1.83-0.26c2.05-0.6,3.65-2.12,4.35-4.11l4.39,1.35c0.06,0.02,0.11,0.04,0.17,0.05v0.76l-4.81,1.48
	c-3.15,0.96-5.45,3.75-5.79,7.01h-7.75v-2.09C20.09,69,19.47,68.39,18.72,68.39z M17.09,45.5c-1.04-0.13-1.83-1.02-1.83-2.07
	c0-0.38,0.11-0.76,0.32-1.09c3.66-0.25,11.41-1.53,15.61-3.68c-0.25,0.91-0.38,1.86-0.39,2.81v3.94c-0.64,0.83-0.99,1.86-0.99,2.92
	c0,1.99,1.22,3.76,3.05,4.48c0.05,0.67,0.15,1.33,0.3,1.98c-1.6,1.14-3.48,1.74-5.44,1.74c-3,0-5.76-1.38-7.55-3.78
	c-1.21-1.62-1.88-3.63-1.88-5.65v-0.25C18.29,46.17,17.77,45.59,17.09,45.5z M52.27,13.25h1.86c2.88,0.01,5.31,2.27,5.53,5.14
	l0.56,7.6h-1.56c-1.46,0-2.93,0.31-4.27,0.9l-0.68-1.6c-0.76-1.78-2.5-2.92-4.44-2.92h-8.55c-1.94,0-3.67,1.15-4.43,2.93l-0.68,1.59
	c-1.34-0.59-2.81-0.9-4.27-0.9h-1.56l0.56-7.61c0.22-2.87,2.64-5.13,5.53-5.14h1.86c0.53,0,1.01,0.26,1.3,0.71
	c0.8,1.21,2.13,1.93,3.58,1.93h4.78c1.44,0,2.78-0.72,3.57-1.93C51.26,13.51,51.74,13.25,52.27,13.25z M57.66,35.23L57.66,35.23
	L57.66,35.23L57.66,35.23z M66.1,59.01c0,2.11-1.71,3.82-3.82,3.82c-2.1,0-3.82-1.71-3.82-3.82v-0.37c2.46,0.83,5.17,0.83,7.63,0.01
	V59.01z M48.82,63.92c0,0.1-0.01,0.2-0.02,0.33c-0.18,2.07-2.04,3.66-4.13,3.47c-1.85-0.16-3.31-1.62-3.47-3.5
	c-0.01-0.1-0.02-0.2-0.02-0.31v-0.36c2.46,0.83,5.17,0.83,7.63,0V63.92z M38.81,26.37c0.33-0.77,1.08-1.27,1.91-1.27h8.55
	c0.84,0,1.59,0.5,1.92,1.27l0.83,1.95c-0.92,0.74-1.71,1.63-2.34,2.64c-0.36-0.04-0.71-0.06-1.07-0.06h-7.24
	c-0.36,0-0.72,0.02-1.07,0.06c-0.63-1.01-1.41-1.89-2.34-2.63L38.81,26.37z M40.3,39.78h-0.01c-0.4,0.03-0.77,0.23-0.99,0.53
	c-1.53,1.81-3.52,3.13-5.76,3.85v-2.68c0.01-4.32,3.53-7.84,7.85-7.85h7.23c4.32,0.01,7.84,3.53,7.85,7.85v2.98
	c-5.05-0.46-13.19-2.29-15.1-4.27c-0.26-0.26-0.61-0.42-0.98-0.42H40.3z M40.54,43.01c3.84,2.48,12.52,3.97,16.6,4.24
	c0.2,0.32,0.32,0.71,0.32,1.09c0,1.05-0.79,1.94-1.83,2.07c-0.68,0.09-1.2,0.67-1.2,1.36v0.25c0,5.2-4.23,9.43-9.43,9.43
	s-9.43-4.23-9.43-9.43v-0.25c0-0.69-0.52-1.27-1.2-1.36c-1.04-0.13-1.83-1.02-1.83-2.07c0-0.43,0.14-0.85,0.39-1.19
	C35.81,46.5,38.43,45.08,40.54,43.01z M55.73,58.45l-0.51,0.16c0.18-0.28,0.35-0.57,0.52-0.87L55.73,58.45z M34.79,58.61l-0.51-0.16
	l0-0.71C34.43,58.04,34.6,58.33,34.79,58.61z M31.54,59.01c0,0.1-0.01,0.2-0.02,0.33c-0.17,2.07-2.02,3.66-4.12,3.49
	c-1.97-0.16-3.51-1.84-3.5-3.82v-0.36c1.23,0.41,2.51,0.62,3.82,0.62c1.3,0,2.58-0.21,3.82-0.62V59.01z M62.29,56.54
	c-1.94,0-3.87-0.62-5.45-1.74c0.15-0.65,0.25-1.31,0.3-1.98c1.83-0.73,3.05-2.5,3.05-4.48c0-1.06-0.34-2.09-0.99-2.92v-3.94
	c0-0.95-0.13-1.89-0.39-2.81c4.19,2.14,11.95,3.43,15.61,3.68c0.21,0.32,0.32,0.7,0.32,1.09c0,1.01-0.74,1.88-1.73,2.06l-0.1,0.01
	c-0.69,0.09-1.2,0.67-1.2,1.36v0.25C71.72,52.3,67.5,56.54,62.29,56.54z M58.64,35.28c-0.26-0.26-0.62-0.41-0.99-0.41l-0.08,0
	c-0.21,0.01-0.4,0.07-0.57,0.17c-1.16-1.52-2.69-2.68-4.47-3.39c1.47-1.84,3.72-2.93,6.12-2.93h7.23c4.33,0,7.85,3.53,7.85,7.85
	l0,2.98C68.7,39.09,60.55,37.26,58.64,35.28z M31.34,26.35L31.34,26.35L31.34,26.35L31.34,26.35z M33,35.05
	c-0.5-0.28-1.16-0.2-1.58,0.19l-0.06,0.06c-1.91,1.98-10.06,3.8-15.1,4.26v-2.98c0-4.32,3.53-7.85,7.85-7.85h7.26
	c2.38,0,4.62,1.09,6.1,2.94C35.69,32.37,34.16,33.53,33,35.05z M50.55,35.88c0.39-0.62,1.27-0.81,1.89-0.42
	c1.17,0.74,2.09,1.8,2.66,3.06c0.32,0.71,0,1.52-0.68,1.82c-0.18,0.08-0.36,0.12-0.56,0.12c-0.54,0-1.03-0.32-1.25-0.81
	c-0.35-0.77-0.92-1.43-1.65-1.89C50.34,37.37,50.15,36.52,50.55,35.88z M37.39,19.17c0,0.75-0.61,1.37-1.37,1.37h-0.36v0.36
	c0,0.75-0.61,1.37-1.37,1.37c-0.76,0-1.37-0.61-1.37-1.37v-0.36h-0.36c-0.75,0-1.37-0.61-1.37-1.37c0-0.75,0.61-1.37,1.37-1.37h0.36
	v-0.36c0-0.75,0.61-1.37,1.37-1.37c0.75,0,1.37,0.61,1.37,1.37v0.36h0.36C36.78,17.8,37.39,18.41,37.39,19.17z M56.28,17.65
	c0.83,0,1.51,0.68,1.51,1.51c0,0.83-0.68,1.51-1.51,1.51s-1.51-0.68-1.51-1.51C54.77,18.33,55.45,17.65,56.28,17.65z M50.45,19.16
	c0-0.83,0.68-1.51,1.51-1.51c0.83,0,1.51,0.68,1.51,1.51c0,0.83-0.68,1.51-1.51,1.51C51.12,20.67,50.45,20,50.45,19.16z
	 M55.63,21.32c0,0.83-0.68,1.51-1.51,1.51c-0.83,0-1.51-0.68-1.51-1.51c0-0.83,0.68-1.51,1.51-1.51
	C54.95,19.81,55.63,20.49,55.63,21.32z M52.61,17c0-0.83,0.68-1.51,1.51-1.51c0.83,0,1.51,0.68,1.51,1.51
	c0,0.83-0.68,1.51-1.51,1.51C53.28,18.51,52.61,17.84,52.61,17z"/>
</svg>
