<?xml version="1.0" encoding="utf-8"?>
<!-- Generator: Adobe Illustrator 26.3.1, SVG Export Plug-In . SVG Version: 6.00 Build 0)  -->
<svg version="1.1" id="h2s246n1ffi75gFdih0a_Layer_1" xmlns="http://www.w3.org/2000/svg" xmlns:xlink="http://www.w3.org/1999/xlink" x="0px" y="0px" viewBox="0 0 90 90" style="enable-background:new 0 0 90 90;fill: white;" xml:space="preserve" class="h2s246n1ffi75gFdih0a">
<path d="M31.73,70.18c0.91,0.91,0.91,2.38,0,3.28c-0.91,0.91-2.38,0.91-3.28,0c-0.91-0.91-0.91-2.38,0-3.28
	C29.35,69.27,30.83,69.27,31.73,70.18z M78.09,67.56c0,0.03,0.02,0.06,0.02,0.09v7.11c0,3.11-2.2,5.45-5.13,5.45
	c-2.92,0-5.13-2.34-5.13-5.45v-3.1c0-0.51,0.3-0.98,0.76-1.2c0.46-0.22,1.01-0.15,1.41,0.18l3.05,2.52c0.43,0.36,0.59,0.94,0.4,1.47
	c-0.19,0.53-0.69,0.87-1.24,0.87h-1.64c0.24,1.1,1.01,2.07,2.4,2.07c1.71,0,2.48-1.46,2.48-2.81v-7.11c0-0.02,0.01-0.03,0.01-0.04
	c-1.36-0.51-2.33-1.8-2.33-3.33c0-1.5,0.93-2.78,2.25-3.31V15.68l-38,60.16c-0.06,0.1-0.14,0.19-0.22,0.26
	c-0.34,0.56-0.75,1.09-1.22,1.57c-1.57,1.57-3.65,2.43-5.86,2.43c-2.21,0-4.29-0.86-5.86-2.43c-1.57-1.57-2.43-3.65-2.43-5.86
	c0-0.07,0.01-0.15,0.01-0.22l-4.9,4.9c-0.26,0.26-0.6,0.39-0.94,0.39c-0.34,0-0.68-0.13-0.93-0.39l-3.85-3.85
	c-0.25-0.25-0.39-0.58-0.39-0.93c0-0.35,0.14-0.69,0.39-0.94L30.8,51.18c0.5-0.5,1.37-0.5,1.87,0l1.05,1.05l42.05-42.05l0,0l0,0
	c0.12-0.12,0.26-0.21,0.41-0.28c0.04-0.02,0.08-0.02,0.12-0.03c0.12-0.04,0.24-0.07,0.37-0.07c0.01,0,0.02-0.01,0.04-0.01
	c0.05,0,0.1,0.02,0.15,0.03c0.1,0.01,0.2,0.02,0.3,0.06c0.08,0.03,0.14,0.07,0.21,0.11c0.05,0.03,0.12,0.05,0.17,0.09
	c0.02,0.02,0.03,0.04,0.05,0.06c0.06,0.05,0.1,0.11,0.15,0.18c0.05,0.07,0.11,0.14,0.15,0.22c0.03,0.06,0.05,0.13,0.07,0.2
	c0.03,0.09,0.05,0.18,0.06,0.28c0,0.03,0.02,0.06,0.02,0.1v49.85c1.31,0.53,2.25,1.81,2.25,3.31
	C80.28,65.75,79.37,67.02,78.09,67.56z M75.79,64.27c0,0.51,0.41,0.92,0.92,0.92c0.51,0,0.92-0.41,0.92-0.92
	c0-0.51-0.42-0.92-0.92-0.92C76.2,63.35,75.79,63.76,75.79,64.27z M33.71,55.96l-1.98-1.98L14,71.72l1.98,1.98L33.71,55.96z
	 M34.08,75.81c1.07-1.07,1.65-2.48,1.65-3.99c0-1.51-0.59-2.92-1.65-3.99c-1.07-1.07-2.48-1.65-3.99-1.65
	c-1.51,0-2.92,0.59-3.99,1.65c-1.07,1.07-1.65,2.48-1.65,3.99c0,1.51,0.59,2.92,1.65,3.99c1.07,1.07,2.48,1.65,3.99,1.65
	C31.6,77.46,33.01,76.87,34.08,75.81z M69.26,20.44L35.6,54.1l0.92,0.92c0.52,0.52,0.52,1.35,0,1.87l-6.65,6.65
	c0.07,0,0.15-0.01,0.22-0.01c2.21,0,4.29,0.86,5.86,2.43c1.07,1.07,1.8,2.37,2.16,3.8L69.26,20.44z M10.64,35.49
	c-0.41-0.13-0.71-0.48-0.78-0.9c-0.19-0.9-0.19-1.82,0-2.72c0.28-1.18,0.86-2.27,1.7-3.15c-0.12-0.14-0.24-0.28-0.35-0.43
	c-1.1-1.54-1.59-3.44-1.35-5.32c0.04-0.44,0.34-0.82,0.77-0.96c1.33-0.43,2.76-0.43,4.09,0c1.31,0.46,2.43,1.32,3.21,2.46
	c1.1-1.17,2.37-2.17,3.77-2.97c0.53-0.33,1.22-0.18,1.56,0.35c0.33,0.53,0.18,1.22-0.35,1.56c-0.03,0.02-0.05,0.03-0.08,0.05
	c-1.61,0.92-3.02,2.17-4.14,3.65c-0.24,0.35-0.65,0.53-1.07,0.47c-0.42-0.05-0.77-0.34-0.91-0.73c-0.48-1.22-1.46-2.18-2.7-2.64
	c-0.6-0.22-1.25-0.3-1.89-0.23c0,1.05,0.33,2.08,0.95,2.93c0.25,0.34,0.56,0.65,0.9,0.9c0.27,0.22,0.42,0.56,0.4,0.9
	c0,0.36-0.17,0.69-0.46,0.9c-0.91,0.66-1.55,1.62-1.79,2.72c-0.08,0.37-0.11,0.75-0.09,1.13c0.67,0.11,1.36,0.06,2.01-0.16
	c1.24-0.47,2.22-1.45,2.68-2.7c0.12-0.38,0.43-0.67,0.81-0.77c0.38-0.08,0.78,0.04,1.05,0.33c1.46,1.5,3.24,2.66,5.21,3.38
	c0.15,0.05,0.28,0.14,0.38,0.25c0.05,0.02,0.1,0.04,0.15,0.07c0.48,0.39,0.56,1.1,0.17,1.59c-0.01,0.01-0.01,0.02-0.02,0.03
	c-0.57,0.67-0.93,1.49-1.04,2.37c0,0,0,0.07,0,0.1c0.64,0.1,1.3,0.04,1.92-0.17c1.17-0.45,2.09-1.37,2.56-2.53
	c0.1-0.49,0.51-0.86,1.01-0.9c0.35,0,0.69-0.03,1.02-0.1c-0.84-1.75-1.16-3.71-0.94-5.64c0.16-1.34,0.59-2.63,1.26-3.8
	c0.31-0.54,1-0.73,1.55-0.42c0.54,0.31,0.73,1,0.42,1.55c-0.49,0.9-0.81,1.89-0.94,2.91c-0.19,1.68,0.14,3.38,0.95,4.86
	c2.72-0.98,5.08-2.76,6.77-5.1c-1.9-3.86-5.73-6.41-10.03-6.66c-0.93-0.05-1.87,0.02-2.79,0.21c-0.37,0.07-0.74-0.05-1-0.32
	c-0.13-0.06-0.25-0.14-0.35-0.25c-1.14-1.13-1.67-2.73-1.44-4.32c0.06-0.43,0.36-0.78,0.77-0.91c1.33-0.43,2.76-0.43,4.09,0
	c1.82,0.66,3.28,2.07,4,3.87c4.04,1.22,7.34,4.16,9.02,8.03c0.15,0.34,0.12,0.73-0.08,1.05c-2.59,3.94-6.75,6.57-11.42,7.22
	c-0.77,1.58-2.13,2.79-3.79,3.38c-0.66,0.22-1.34,0.33-2.03,0.33c-0.67,0.02-1.35-0.07-2-0.25c-0.42-0.14-0.73-0.51-0.78-0.95
	c-0.05-0.46-0.05-0.92,0-1.38c0.1-0.83,0.36-1.64,0.77-2.37c-1.4-0.64-2.7-1.46-3.89-2.44c-0.79,1.22-1.96,2.14-3.33,2.62
	C13.4,35.92,11.97,35.92,10.64,35.49z M29.26,19.7c-0.46-0.52-1.05-0.91-1.71-1.13c-0.6-0.23-1.25-0.3-1.89-0.23
	c0.08,0.55,0.32,1.06,0.69,1.48c0.89-0.13,1.79-0.17,2.7-0.12H29.26z M36.93,27.59c0-0.62-0.5-1.13-1.13-1.13
	c-0.62,0-1.13,0.5-1.13,1.13c0,0.62,0.51,1.13,1.13,1.13C36.42,28.72,36.93,28.22,36.93,27.59z"/>
</svg>
