<?xml version="1.0" encoding="utf-8"?>
<!-- Generator: Adobe Illustrator 26.3.1, SVG Export Plug-In . SVG Version: 6.00 Build 0)  -->
<svg version="1.1" id="hfvs94e8gm98caae8eo7-_Layer_1" xmlns="http://www.w3.org/2000/svg" xmlns:xlink="http://www.w3.org/1999/xlink" x="0px" y="0px" viewBox="0 0 90 90" style="enable-background:new 0 0 90 90;fill:#ff4691;fill:#ff4691;" xml:space="preserve" class="hfvs94e8gm98caae8eo7-">
<path d="M78.61,25.99c0-0.12-0.02-0.25-0.05-0.37c-0.01-0.03-0.02-0.06-0.03-0.08c-0.02-0.05-0.03-0.09-0.05-0.14
	c-0.02-0.05-0.05-0.1-0.08-0.14c-0.01-0.02-0.02-0.04-0.03-0.06c-0.07-0.11-0.16-0.21-0.25-0.29c-0.01-0.01-0.01-0.01-0.02-0.02
	c-0.09-0.08-0.19-0.14-0.3-0.19c-0.01-0.01-0.03-0.02-0.04-0.03L45.61,10.05c-0.39-0.18-0.83-0.18-1.21,0L12.24,24.67
	c-0.02,0.01-0.03,0.02-0.05,0.03c-0.1,0.05-0.2,0.11-0.28,0.18c-0.01,0.01-0.02,0.02-0.03,0.02c-0.09,0.08-0.17,0.18-0.24,0.28
	c-0.02,0.02-0.03,0.05-0.04,0.07c-0.03,0.05-0.06,0.09-0.08,0.14c-0.02,0.04-0.03,0.09-0.05,0.13c-0.01,0.03-0.02,0.06-0.03,0.09
	c-0.03,0.12-0.05,0.24-0.05,0.37c0,0.01,0,0.01,0,0.01v36.54c0,0.55,0.31,1.06,0.81,1.31l32.16,16.08c0.01,0.01,0.02,0.01,0.03,0.01
	c0.08,0.04,0.16,0.06,0.24,0.09c0.02,0.01,0.04,0.01,0.06,0.02c0.1,0.02,0.21,0.04,0.32,0.04c0.11,0,0.22-0.01,0.32-0.04
	c0.03-0.01,0.05-0.02,0.07-0.02c0.08-0.02,0.15-0.05,0.23-0.08c0.01-0.01,0.02-0.01,0.04-0.01l32.16-16.08
	c0.49-0.25,0.8-0.75,0.8-1.31V26C78.62,26,78.61,25.99,78.61,25.99z M45,12.99L73.62,26L45,39.01L16.38,26L45,12.99z M14.31,28.27
	l29.23,13.29v34.7L14.31,61.64V28.27z M46.46,76.25v-34.7l29.23-13.29v33.37L46.46,76.25z M40.61,26c0-1.69,1.85-2.92,4.38-2.92
	c2.54,0,4.39,1.23,4.39,2.92c0,1.69-1.84,2.92-4.39,2.92C42.46,28.92,40.61,27.69,40.61,26z M40.61,46.46
	c0,2.54-1.23,4.39-2.92,4.39c-1.7,0-2.92-1.85-2.92-4.39c0-2.54,1.23-4.38,2.92-4.38C39.39,42.08,40.61,43.92,40.61,46.46z
	 M31.84,51.64c0,2.54-1.23,4.38-2.92,4.38S26,54.18,26,51.64c0-2.54,1.23-4.38,2.92-4.38S31.84,49.1,31.84,51.64z M23.08,56.69
	c0,2.54-1.23,4.38-2.92,4.38c-1.7,0-2.92-1.84-2.92-4.38c0-2.54,1.23-4.38,2.92-4.38C21.85,52.31,23.08,54.15,23.08,56.69z
	 M56.69,47.92c0,2.54-1.23,4.39-2.92,4.39s-2.92-1.84-2.92-4.39c0-2.54,1.23-4.38,2.92-4.38S56.69,45.38,56.69,47.92z M71.31,55.23
	c0,2.54-1.23,4.38-2.92,4.38c-1.69,0-2.92-1.84-2.92-4.38s1.23-4.38,2.92-4.38C70.08,50.85,71.31,52.69,71.31,55.23z"/>
</svg>
