<?xml version="1.0" encoding="utf-8"?>
<!-- Generator: Adobe Illustrator 26.3.1, SVG Export Plug-In . SVG Version: 6.00 Build 0)  -->
<svg version="1.1" id="h2Vf0Leb00T4f6v7f7i_Layer_1" xmlns="http://www.w3.org/2000/svg" xmlns:xlink="http://www.w3.org/1999/xlink" x="0px" y="0px" viewBox="0 0 90 90" style="enable-background:new 0 0 90 90;fill: #ff4691;" xml:space="preserve" class="h2Vf0Leb00T4f6v7f7i">
<path d="M83.51,36.17c-0.45,0-0.91,0.13-1.37,0.39l-13.32,7.69v-7.51c0-1.53-1.25-2.78-2.78-2.78H22.46
	c-1.38-1.59-3.41-2.6-5.67-2.6c-4.13,0-7.49,3.36-7.49,7.5v9.62H6.53c-0.62,0-1.21,0.26-1.62,0.72c-0.41,0.46-0.62,1.07-0.56,1.68
	c0.3,3.08,1.72,5.92,4.02,8.02c2.01,1.84,4.55,2.96,7.23,3.21v5.48H8.37c-1.53,0-2.78,1.25-2.78,2.78v2.23
	c0,1.53,1.25,2.78,2.78,2.78h8.2c0.66,0,1.19-0.54,1.19-1.19c0-0.66-0.53-1.19-1.19-1.19h-8.2c-0.21,0-0.4-0.18-0.4-0.4v-2.23
	c0-0.22,0.18-0.4,0.4-0.4h16.84c0.22,0,0.4,0.18,0.4,0.4v2.23c0,0.22-0.18,0.4-0.4,0.4h-3.08c-0.66,0-1.19,0.53-1.19,1.19
	c0,0.66,0.53,1.19,1.19,1.19h3.08c1.47,0,2.68-1.15,2.77-2.6h38.06c1.53,0,2.78-1.25,2.78-2.78v-7.51l13.32,7.69
	c0.45,0.26,0.91,0.39,1.37,0.39c0.65,0,1.23-0.27,1.62-0.77c0.35-0.43,0.53-1.01,0.53-1.66V38.59
	C85.66,37.16,84.78,36.17,83.51,36.17 M11.68,38.85c0-2.82,2.29-5.11,5.11-5.11c2.82,0,5.11,2.29,5.11,5.11v6.72H11.68V38.85z
	 M11.68,47.95H21.9v1.71c0,2.82-2.29,5.11-5.11,5.11c-2.82,0-5.11-2.3-5.11-5.11V47.95z M9.97,57.13c-1.81-1.65-2.95-3.87-3.23-6.28
	h2.65c0.57,3.57,3.67,6.3,7.4,6.3c3.73,0,6.83-2.73,7.4-6.3h2.65c-0.28,2.41-1.43,4.63-3.23,6.28c-1.87,1.71-4.29,2.65-6.82,2.65
	C14.26,59.78,11.84,58.84,9.97,57.13 M66.44,69.99c0,0.22-0.18,0.4-0.4,0.4H27.99v-0.02c0-1.53-1.25-2.78-2.78-2.78h-7.23V62.1
	c2.69-0.26,5.22-1.37,7.23-3.21c2.29-2.09,3.72-4.94,4.02-8.02c0.06-0.61-0.14-1.23-0.56-1.68c-0.41-0.46-1-0.72-1.62-0.72h-2.76
	v-9.62c0-0.88-0.15-1.73-0.43-2.51h42.19c0.21,0,0.4,0.18,0.4,0.4V69.99z M83.28,68.07l-5.65-3.26v-5.04c0-0.66-0.53-1.19-1.19-1.19
	c-0.66,0-1.19,0.53-1.19,1.19v3.66l-6.42-3.71V47l6.42-3.71v10.92c0,0.66,0.53,1.19,1.19,1.19c0.66,0,1.19-0.53,1.19-1.19v-12.3
	l5.65-3.26V68.07z M52.03,51.54l-14.55-8.31c-0.4-0.23-0.8-0.34-1.2-0.34c-1.14,0-1.96,0.91-1.96,2.18v16.59
	c0,1.26,0.82,2.18,1.96,2.18c0.4,0,0.8-0.11,1.2-0.34l14.55-8.31c0.74-0.42,1.17-1.09,1.17-1.82S52.78,51.96,52.03,51.54
	 M36.71,61.2V45.53l13.71,7.83L36.71,61.2z M18.29,36.76c0.66,0,1.19,0.53,1.19,1.19c0,0.66-0.53,1.19-1.19,1.19h-3
	c-0.66,0-1.19-0.53-1.19-1.19c0-0.66,0.53-1.19,1.19-1.19H18.29 M18.29,41.16c0.66,0,1.19,0.53,1.19,1.19
	c0,0.66-0.53,1.19-1.19,1.19h-3c-0.66,0-1.19-0.53-1.19-1.19c0-0.66,0.53-1.19,1.19-1.19H18.29 M45,28.78
	c1.33,0,2.61,0.56,3.51,1.55c0.44,0.48,0.41,1.24-0.07,1.68c-0.48,0.45-1.24,0.41-1.68-0.07c-0.46-0.5-1.09-0.78-1.76-0.78
	c-0.67,0-1.3,0.28-1.76,0.78c-0.24,0.25-0.56,0.38-0.88,0.38c-0.29,0-0.58-0.1-0.81-0.32c-0.48-0.44-0.51-1.2-0.07-1.68
	C42.39,29.35,43.67,28.78,45,28.78 M45,26.45c-1.98,0-3.89,0.84-5.23,2.3c-0.44,0.49-1.2,0.52-1.68,0.07
	c-0.48-0.44-0.52-1.2-0.07-1.68c1.79-1.95,4.34-3.07,6.98-3.07c2.64,0,5.19,1.12,6.98,3.07c0.45,0.48,0.41,1.24-0.07,1.68
	c-0.23,0.21-0.52,0.31-0.81,0.31c-0.32,0-0.64-0.13-0.88-0.39C48.88,27.29,46.98,26.45,45,26.45z M46.44,21.82
	c-0.48-0.06-0.96-0.09-1.44-0.09c-3.29,0-6.46,1.4-8.7,3.83c-0.23,0.25-0.56,0.38-0.88,0.38c-0.29,0-0.58-0.1-0.81-0.31
	c-0.48-0.44-0.52-1.2-0.07-1.68c2.69-2.92,6.5-4.6,10.45-4.6c0.58,0,1.16,0.03,1.73,0.1c0.65,0.08,1.12,0.67,1.04,1.33
	C47.69,21.43,47.1,21.9,46.44,21.82 M53.7,25.56c-0.74-0.8-1.58-1.49-2.5-2.06c-0.56-0.35-0.73-1.08-0.39-1.64
	c0.35-0.56,1.08-0.73,1.64-0.39c1.11,0.68,2.12,1.52,3,2.48c0.45,0.49,0.41,1.24-0.07,1.68c-0.23,0.21-0.52,0.31-0.81,0.31
	C54.26,25.94,53.94,25.81,53.7,25.56 M31.95,22.75c-0.29,0-0.58-0.1-0.81-0.31c-0.48-0.45-0.52-1.2-0.07-1.68
	c3.58-3.89,8.66-6.12,13.92-6.12c5.27,0,10.35,2.23,13.93,6.12c0.44,0.48,0.41,1.24-0.07,1.68c-0.48,0.45-1.24,0.41-1.68-0.07
	c-3.13-3.4-7.57-5.35-12.17-5.35c-4.6,0-9.04,1.95-12.17,5.35C32.59,22.62,32.27,22.75,31.95,22.75"/>
</svg>
