<?xml version="1.0" encoding="utf-8"?>
<!-- Generator: Adobe Illustrator 26.3.1, SVG Export Plug-In . SVG Version: 6.00 Build 0)  -->
<svg version="1.1" id="hed0t0reLa1_ody229bt6a_Layer_1" xmlns="http://www.w3.org/2000/svg" xmlns:xlink="http://www.w3.org/1999/xlink" x="0px" y="0px" viewBox="0 0 90 90" style="enable-background:new 0 0 90 90;fill: white;" xml:space="preserve" class="hed0t0reLa1_ody229bt6a">
<path d="M76.53,24.19c0-5.47-4.45-9.91-9.92-9.91c-3.9,0-7.35,2.25-8.96,5.66c-3.22-2.46-6.93-4.16-10.87-5l1.86-3.99
	c0.19-0.41,0.16-0.89-0.08-1.27c-0.24-0.38-0.66-0.61-1.12-0.61H34.53c-0.45,0-0.87,0.23-1.12,0.61c-0.24,0.38-0.27,0.86-0.08,1.27
	l1.87,3.99c-12.5,2.69-21.73,13.95-21.73,26.89c0,10.72,6.21,20.39,15.87,24.92v5.51h-2.2c-2.4,0-4.34,1.95-4.34,4.35
	c0,2.4,1.95,4.34,4.34,4.34h27.71c2.4,0,4.34-1.95,4.34-4.34c0-2.4-1.95-4.35-4.34-4.35h-2.2v-5.5c9.66-4.53,15.87-14.2,15.87-24.92
	c0-2.66-0.38-5.26-1.12-7.76C72.5,33.66,76.53,29.39,76.53,24.19z M49.2,59.97l-4.62-12.33c0.91-0.56,1.67-1.32,2.23-2.23
	l12.33,4.62C57.14,54.44,53.61,57.97,49.2,59.97z M22.84,50.04l12.33-4.62c0.56,0.91,1.32,1.67,2.23,2.23l-4.62,12.33
	C28.37,57.98,24.84,54.44,22.84,50.04z M32.78,23.68l4.62,12.33c-0.91,0.56-1.67,1.32-2.23,2.23l-12.33-4.62
	C24.84,29.2,28.37,25.67,32.78,23.68z M38.53,22.06l1.26,2.69c0.22,0.47,0.68,0.76,1.2,0.76c0.51,0,0.98-0.3,1.2-0.76l1.26-2.69
	c1.11,0.14,2.21,0.37,3.27,0.69L42.1,35.08c-0.74-0.12-1.49-0.12-2.23,0l-4.62-12.33C36.32,22.43,37.42,22.19,38.53,22.06z
	 M45.64,17.41c4.11,0.77,7.94,2.57,11.18,5.25c-0.08,0.5-0.13,1.01-0.13,1.52c0,0.53,0.05,1.05,0.13,1.56
	c-2.23-2.2-4.92-3.94-7.92-5.06c-1.39-0.52-2.83-0.89-4.31-1.13L45.64,17.41z M60.91,41.82c0,1.96-0.3,3.88-0.85,5.73l-12.32-4.62
	c0.06-0.37,0.09-0.74,0.09-1.11c0-0.38-0.03-0.75-0.09-1.12l12.32-4.62C60.61,37.94,60.91,39.86,60.91,41.82z M42.46,45.76
	L42.46,45.76C42.46,45.76,42.46,45.76,42.46,45.76c-0.94,0.36-2,0.36-2.94,0c-1.14-0.42-2.03-1.32-2.46-2.46l0,0c0,0,0,0,0,0
	c-0.18-0.47-0.27-0.96-0.27-1.47c0-0.5,0.09-1,0.27-1.47l0,0c0,0,0,0,0,0c0.43-1.14,1.32-2.03,2.46-2.46h0c0,0,0,0,0,0
	c0.47-0.18,0.96-0.27,1.47-0.27c0.51,0,1,0.09,1.47,0.27c1.14,0.42,2.03,1.32,2.46,2.46v0v0v0c0.18,0.47,0.27,0.96,0.27,1.47
	c0,0.51-0.09,1-0.27,1.47v0c0,0,0,0,0,0C44.5,44.43,43.6,45.33,42.46,45.76z M21.92,47.56c-0.56-1.85-0.85-3.77-0.85-5.73
	c0-1.96,0.3-3.88,0.85-5.73l12.32,4.62c-0.06,0.37-0.09,0.74-0.09,1.12c0,0.38,0.03,0.75,0.09,1.11L21.92,47.56z M46.81,38.23
	c-0.56-0.91-1.32-1.67-2.23-2.23l4.62-12.33c4.41,2,7.94,5.53,9.94,9.94L46.81,38.23z M39.88,48.57c0.37,0.06,0.74,0.09,1.11,0.09
	c0.38,0,0.75-0.03,1.11-0.09l4.62,12.32c-3.71,1.11-7.75,1.11-11.46,0L39.88,48.57z M45.38,11.71l-1.71,3.65
	c-0.01,0.02-0.02,0.05-0.03,0.07c-0.01,0.03-0.02,0.06-0.03,0.09c0,0.02-0.01,0.03-0.02,0.05l-2.16,4.46l0.04,0.02
	c-0.01,0.02-0.02,0.02-0.03,0.04l-0.46,0.98l-0.45-0.96c0-0.01,0-0.01-0.01-0.02l-2.21-4.71c0-0.01,0-0.01-0.01-0.02l-1.71-3.65
	H45.38z M56.54,76.59c0,0.94-0.76,1.7-1.7,1.7H27.14c-0.94,0-1.7-0.76-1.7-1.7c0-0.94,0.76-1.7,1.7-1.7h3.52h20.66h3.52
	C55.78,74.89,56.54,75.66,56.54,76.59z M31.98,72.25v-4.42c2.89,1,5.91,1.52,9.01,1.52c3.1,0,6.12-0.51,9.01-1.52v4.42H31.98z
	 M50.81,64.69c0,0-0.01,0-0.01,0.01c-3.1,1.33-6.4,2.01-9.81,2.01c-3.41,0-6.71-0.68-9.81-2.01c0,0,0,0,0,0c0,0,0,0,0,0
	c-9.15-3.94-15.06-12.91-15.06-22.86c0-11.91,8.63-22.24,20.23-24.43l1.02,2.17c-1.47,0.24-2.91,0.61-4.29,1.13
	c-6.1,2.29-10.91,7.09-13.21,13.19c0,0.01-0.01,0.02-0.01,0.03c0,0.01-0.01,0.02-0.01,0.03c-0.94,2.52-1.42,5.17-1.42,7.89
	c0,2.72,0.48,5.38,1.42,7.89c0,0.01,0,0.02,0.01,0.02c0,0.01,0.01,0.01,0.01,0.02c2.29,6.09,7.09,10.89,13.18,13.19
	c0.01,0,0.02,0.01,0.03,0.02c0.01,0,0.02,0.01,0.04,0.01c2.51,0.94,5.17,1.42,7.88,1.42c2.72,0,5.37-0.48,7.89-1.42
	c0.01,0,0.02,0,0.03-0.01c0.01,0,0.02-0.01,0.03-0.02c6.09-2.29,10.89-7.1,13.18-13.19c0,0,0.01-0.01,0.01-0.02
	c0-0.01,0-0.02,0.01-0.03c0.94-2.52,1.42-5.17,1.42-7.89c0-2.72-0.48-5.38-1.42-7.89c0-0.01,0-0.02-0.01-0.03
	c0-0.01-0.01-0.02-0.01-0.03c-0.14-0.37-0.29-0.74-0.45-1.1c0.89,0.51,1.86,0.89,2.89,1.11c0.87,2.54,1.31,5.21,1.31,7.94
	C65.87,51.78,59.96,60.75,50.81,64.69z M66.62,31.46c-0.31,0-0.61-0.02-0.9-0.06c-3.63-0.44-6.37-3.55-6.37-7.21
	c0-0.6,0.07-1.18,0.21-1.74c0.8-3.26,3.71-5.53,7.07-5.53c4.01,0,7.27,3.26,7.27,7.27C73.89,28.2,70.62,31.46,66.62,31.46z
	 M70.2,25.7c0,1.55-1.09,2.56-2.9,2.71v0.77h-1.26v-0.8c-1.15-0.15-2.2-0.61-3.01-1.35l1.16-1.4c0.81,0.67,1.72,1.06,2.74,1.06
	c0.78,0,1.18-0.32,1.18-0.77c0-0.5-0.39-0.61-1.6-0.9c-1.78-0.4-3.11-0.89-3.11-2.56c0-1.44,1.04-2.45,2.63-2.63v-0.76h1.26v0.76
	c1.07,0.11,1.94,0.5,2.67,1.1l-1.05,1.48c-0.76-0.58-1.6-0.89-2.38-0.89c-0.67,0-1.04,0.32-1.04,0.73c0,0.51,0.4,0.68,1.64,0.95
	C69,23.61,70.2,24.14,70.2,25.7z"/>
</svg>
