<?xml version="1.0" encoding="utf-8"?>
<!-- Generator: Adobe Illustrator 26.3.1, SVG Export Plug-In . SVG Version: 6.00 Build 0)  -->
<svg version="1.1" id="hlS3bt8eo37c6f39s8_Layer_1" xmlns="http://www.w3.org/2000/svg" xmlns:xlink="http://www.w3.org/1999/xlink" x="0px" y="0px" viewBox="0 0 90 90" style="enable-background:new 0 0 90 90;fill: white;" xml:space="preserve" class="hlS3bt8eo37c6f39s8">
<path d="M75.2,39.02h-0.56v-9.97c1.48-0.54,2.54-1.95,2.54-3.62c0-2.13-1.73-3.86-3.86-3.86c-2.13,0-3.86,1.73-3.86,3.86
	c0,1.66,1.06,3.07,2.54,3.62v9.97h-0.56c-1.16,0-2.13,0.85-2.33,1.95h-3.2v-6.72c1.85-0.49,3.23-2.18,3.23-4.18v-2.28
	c0-2.02-1.38-3.71-3.25-4.19c-0.25-3.92-3.52-7.04-7.5-7.04h-3.72c-1.05-3.96-6.77-6.9-13.88-6.9c-7.11,0-12.83,2.94-13.88,6.9
	h-3.72c-3.98,0-7.25,3.12-7.5,7.04c-1.87,0.48-3.25,2.17-3.25,4.19v2.28c0,2.01,1.37,3.69,3.23,4.18v21.5
	c-1.85,0.49-3.23,2.18-3.23,4.18v2.28c0,2.01,1.37,3.69,3.23,4.18v12.62c0,0.73,0.59,1.32,1.32,1.32h47.61
	c0.73,0,1.32-0.59,1.32-1.32V66.39c1.85-0.49,3.23-2.18,3.23-4.18v-2.28c0-2.01-1.37-3.69-3.23-4.18v-6.72h3.2
	c0.2,1.11,1.17,1.95,2.33,1.95h3.76c1.31,0,2.37-1.06,2.37-2.37v-7.22C77.57,40.08,76.51,39.02,75.2,39.02z M73.32,24.21
	c0.67,0,1.22,0.55,1.22,1.22c0,0.67-0.55,1.22-1.22,1.22c-0.67,0-1.22-0.55-1.22-1.22C72.1,24.76,72.65,24.21,73.32,24.21z
	 M34.17,55.6V34.4h13.22v21.2H34.17z M18.3,55.6V34.4h13.22v21.2H18.3z M50.04,34.4h13.22v21.2H50.04V34.4z M23.18,19.21h4.87
	c0.73,0,1.32-0.59,1.32-1.32c0-3.29,6.01-5.57,11.41-5.57c5.4,0,11.41,2.29,11.41,5.57c0,0.73,0.59,1.32,1.32,1.32h4.87
	c2.48,0,4.52,1.86,4.83,4.25H18.34C18.65,21.07,20.7,19.21,23.18,19.21z M15.07,30.07v-2.28c0-0.93,0.76-1.68,1.68-1.68h48.05
	c0.93,0,1.68,0.76,1.68,1.68v2.28c0,0.93-0.76,1.68-1.68,1.68h-0.22H48.71H32.85H16.98h-0.22C15.83,31.75,15.07,31,15.07,30.07z
	 M18.3,77.68V66.54h44.96v11.15H18.3z M66.49,59.93v2.28c0,0.93-0.76,1.69-1.68,1.69H16.76c-0.93,0-1.68-0.76-1.68-1.69v-2.28
	c0-0.93,0.76-1.69,1.68-1.69h0.22h15.87h15.87h15.87h0.22C65.73,58.25,66.49,59,66.49,59.93z M65.91,43.62h3.16v2.77h-3.16V43.62z
	 M74.93,48.34h-3.22v-6.68h3.22V48.34z M49.29,68.71H33.58c-3.05,0-5.54,2.48-5.54,5.54c0,0.73,0.59,1.32,1.32,1.32h24.15
	c0.73,0,1.32-0.59,1.32-1.32C54.83,71.2,52.35,68.71,49.29,68.71z M31.01,72.93c0.48-0.93,1.45-1.57,2.57-1.57h15.71
	c1.12,0,2.09,0.64,2.57,1.57H31.01z M21.77,40.91h6.28v1.54l-3.24,6.65h-2.29l3.18-6.36h-3.93V40.91z M37.64,40.91h6.28v1.54
	l-3.24,6.65h-2.29l3.18-6.36h-3.93V40.91z M53.51,40.91h6.28v1.54l-3.24,6.65h-2.29l3.18-6.36h-3.93V40.91z M35.68,18.65
	c0-0.73,0.59-1.32,1.32-1.32h7.56c0.73,0,1.32,0.59,1.32,1.32c0,0.73-0.59,1.32-1.32,1.32H37C36.27,19.97,35.68,19.38,35.68,18.65z"
	/>
</svg>
