<?xml version="1.0" encoding="utf-8"?>
<!-- Generator: Adobe Illustrator 26.3.1, SVG Export Plug-In . SVG Version: 6.00 Build 0)  -->
<svg version="1.1" id="ht14-01a82foc5pveSro3_Layer_1" xmlns="http://www.w3.org/2000/svg" xmlns:xlink="http://www.w3.org/1999/xlink" x="0px" y="0px" viewBox="0 0 90 90" style="enable-background:new 0 0 90 90;fill:#ff4691;" xml:space="preserve" class="ht14-01a82foc5pveSro3">
<path d="M80.89,49.82c0.05-0.21,0.04-0.43-0.03-0.63C80.04,37.32,70.22,28.09,58.32,28C54.35,14.69,40.34,7.11,27.03,11.09
	C13.72,15.06,6.15,29.06,10.12,42.37c2.09,7.01,7.13,12.76,13.8,15.75c-2.36,1.26-4.55,2.82-6.52,4.62l-3.42,3.13
	c-1.46,1.34-1.56,3.61-0.22,5.08c0.15,0.16,0.31,0.31,0.49,0.45l3.85,2.89c5.55,4.14,12.28,6.39,19.2,6.4h3.43
	c6.92-0.02,13.65-2.26,19.19-6.4l1.36-1.02c11.27-1.52,19.68-11.15,19.66-22.53C80.94,50.43,80.9,50.13,80.89,49.82 M74.61,38.77
	c2.17,2.95,3.5,6.44,3.83,10.09l-1.01,0.51l-5.88-3.92l1.91-6.68H74.61z M66.5,32.19c2.26,1.01,4.33,2.43,6.08,4.19h-0.03
	c-0.54,0-1.01,0.36-1.15,0.87l-2.24,7.86l-3.85,1.77l-5.93-3.95v-4.72l6.68-4.67C66.48,33.22,66.66,32.68,66.5,32.19 M39.45,37.85
	c-0.13,0.11-0.23,0.24-0.31,0.38c-0.01,0.04-0.02,0.09-0.04,0.13l-3.19-3.19l3.81-3.81c1.01,0.92,2.1,1.76,3.24,2.5h0
	C41.64,35.06,40.46,36.39,39.45,37.85 M37.87,40.52c-1.36,2.69-2.17,5.62-2.37,8.63c-1.11-3.14-2.83-6.02-5.07-8.48l3.79-3.8
	L37.87,40.52z M40.7,40.35l0.96,0.48l1.93,4.83l-4.82,4.82l-0.92-0.46C37.97,46.61,38.95,43.28,40.7,40.35 M38.47,53.01
	c0.46,0.23,1.02,0.14,1.38-0.23l5.43-5.43L50,49.24l2.23,7.82c0.02,0.06,0.05,0.12,0.08,0.17c-4.17-1.91-8.71-2.9-13.3-2.89
	c-0.28,0-0.57,0.01-0.85,0.02l-0.01-0.01c-0.09-0.54-0.18-1.08-0.24-1.62L38.47,53.01z M50.85,47.01l-4.93-1.97l-2.2-5.51
	c-0.11-0.27-0.31-0.5-0.58-0.63l-1.08-0.54c2.05-2.67,4.72-4.79,7.79-6.17c-0.15,0.5,0.03,1.04,0.45,1.34l6.68,4.68v4.72
	L50.85,47.01z M58.18,45l5.67,3.79c0.01,0.03,0.01,0.05,0.02,0.08c0.02,0.04,0.05,0.08,0.07,0.12l-1.88,6.56h-7.78l-1.91-6.68
	L58.18,45z M63.63,31.15L63.63,31.15l0.31,0.93l-5.77,4.03l-5.76-4.04l0.31-0.92C56.29,30.13,60.07,30.13,63.63,31.15 M55.86,28.11
	c-3.94,0.41-7.7,1.84-10.92,4.16c-1.26-0.75-2.44-1.62-3.52-2.6l9.72-9.71C53.26,22.32,54.87,25.09,55.86,28.11 M49.42,18.28
	l-9.7,9.7c-3.39-3.76-5.43-8.55-5.79-13.6l-0.14-1.93C39.56,12.33,45.14,14.42,49.42,18.28 M31.41,12.62l0.14,1.93
	c0.4,5.63,2.68,10.96,6.48,15.13l-3.8,3.8l-15.2-15.2C22.47,15.16,26.8,13.19,31.41,12.62 M17.32,19.97l15.2,15.21l-3.79,3.79
	c-4.17-3.8-9.51-6.08-15.14-6.47l-1.93-0.14C12.23,27.75,14.21,23.42,17.32,19.97 M11.49,34.75l1.93,0.14
	c5.05,0.35,9.84,2.39,13.61,5.78l-9.71,9.71C13.46,46.1,11.38,40.51,11.49,34.75 M19,52.09l9.73-9.73
	c3.09,3.44,5.05,7.74,5.62,12.33c-2.56,0.37-5.06,1.06-7.45,2.04C23.98,55.73,21.3,54.15,19,52.09 M62.51,69.34
	c-0.05,0.05-0.1,0.1-0.16,0.15l-3.86,2.89c-5.13,3.83-11.35,5.91-17.75,5.92H37.3c-6.4-0.01-12.63-2.09-17.76-5.92l-3.85-2.89
	c-0.53-0.4-0.64-1.15-0.24-1.68c0.05-0.06,0.1-0.11,0.15-0.16l3.41-3.13c2.44-2.22,5.23-4.02,8.27-5.32
	c0.18-0.03,0.35-0.11,0.5-0.22c10.61-4.38,22.79-2.22,31.25,5.54l3.42,3.13C62.92,68.1,62.95,68.85,62.51,69.34 M60.63,62.75
	c-2.08-1.9-4.39-3.52-6.89-4.82h8.74l2.64,2.64l-2.16,4.31L60.63,62.75z M64.89,69.96L64.89,69.96c0.48-1.04,0.41-2.26-0.19-3.23
	l2.6-5.2h6.91l0.53,1.07C72.3,66.01,68.86,68.59,64.89,69.96 M76.21,60.19l-0.19-0.39c-0.2-0.41-0.62-0.67-1.08-0.66h-7.89
	l-2.74-2.74L66.43,49l3.62-1.67l6.63,4.42c0.36,0.24,0.81,0.27,1.2,0.07l0.63-0.31C78.4,54.54,77.62,57.5,76.21,60.19"/>
</svg>
